<svg id="Capa_1" enable-background="new 0 0 512 512" height="512" viewBox="0 0 512 512" width="512" xmlns="http://www.w3.org/2000/svg"><g><g><path d="m504.5 339.705h-18.765v-285.449c0-15.276-12.428-27.704-27.703-27.704h-404.064c-15.275 0-27.703 12.428-27.703 27.704v285.448h-18.765c-4.143 0-7.5 3.358-7.5 7.5v20.2c0 15.279 12.426 27.71 27.7 27.71h62.127l-10.619 10.619c-2.944-2.678-7.497-2.603-10.342.24l-66.669 66.671c-2.929 2.929-2.929 7.678 0 10.606 2.93 2.929 7.678 2.929 10.607 0l61.367-61.368 23.739 23.739-27.022 27.022c-2.929 2.929-2.929 7.678 0 10.606 1.465 1.464 3.385 2.197 5.304 2.197s3.839-.732 5.304-2.197l32.325-32.325c2.844-2.844 2.918-7.398.24-10.341l12.652-12.652c1.428 1.299 3.231 1.957 5.038 1.957 1.919 0 3.839-.732 5.304-2.197l20.229-20.229c17.231 9.768 37.13 15.355 58.311 15.355 28.938 0 55.485-10.422 76.097-27.703h104.398c4.143 0 7.5-3.358 7.5-7.5s-3.357-7.5-7.5-7.5h-89.427c6.434-7.706 11.908-16.237 16.243-25.41h174.094v12.7c0 7.008-5.697 12.71-12.7 12.71h-53.21c-4.143 0-7.5 3.358-7.5 7.5s3.357 7.5 7.5 7.5h53.21c15.274 0 27.7-12.431 27.7-27.71v-20.2c0-4.142-3.357-7.499-7.5-7.499zm-489.5 27.699v-12.7h93.281c1.256 2.657 2.606 5.261 4.049 7.806l-17.604 17.604h-67.026c-7.002 0-12.7-5.701-12.7-12.71zm74.829 48.923 12.626-12.627 13.637 13.637-12.626 12.627zm41.921-4.545-23.739-23.739 12.716-12.716c6.754 8.986 14.753 16.985 23.739 23.739zm-19.774-107.583c0-57.135 46.483-103.618 103.618-103.618s103.617 46.483 103.617 103.618-46.482 103.618-103.617 103.618-103.618-46.483-103.618-103.618zm220.843 18.175h113.091c4.143 0 7.5-3.358 7.5-7.5v-248.5c0-4.142-3.357-7.5-7.5-7.5h-323.13c-4.143 0-7.5 3.358-7.5 7.5s3.357 7.5 7.5 7.5h315.63v233.5h-104.242c.028-1.055.043-2.113.043-3.175 0-65.406-53.212-118.618-118.617-118.618-65.406 0-118.618 53.211-118.618 118.618 0 1.062.015 2.12.043 3.175h-23.429v-233.5h14.19c4.143 0 7.5-3.358 7.5-7.5s-3.357-7.5-7.5-7.5h-21.69c-4.143 0-7.5 3.358-7.5 7.5v248.5c0 4.142 3.357 7.5 7.5 7.5h32.277c.916 5.932 2.275 11.72 4.038 17.33h-61.14v-285.448c0-7.005 5.698-12.704 12.703-12.704h404.064c7.005 0 12.703 5.699 12.703 12.704v285.448h-141.954c1.764-5.61 3.122-11.397 4.038-17.33z"/><path d="m90.915 98.704v60.609c0 4.142 3.357 7.5 7.5 7.5h315.17c4.143 0 7.5-3.358 7.5-7.5v-60.609c0-4.142-3.357-7.5-7.5-7.5h-315.17c-4.142 0-7.5 3.358-7.5 7.5zm315.17 53.109h-86.016v-45.609h86.016zm-300.17-45.609h199.154v45.609h-199.154z"/><path d="m226.746 218.617c-4.108-.536-7.87 2.363-8.403 6.472-.533 4.108 2.364 7.87 6.472 8.403 35.389 4.595 62.075 34.991 62.075 70.703 0 39.315-31.985 71.3-71.3 71.3-39.31 0-71.29-31.985-71.29-71.3 0-30.908 19.753-58.14 49.153-67.762 3.937-1.289 6.083-5.524 4.795-9.461-1.288-3.936-5.522-6.083-9.461-4.795-35.581 11.646-59.487 44.606-59.487 82.018 0 47.586 38.71 86.3 86.29 86.3 47.586 0 86.3-38.714 86.3-86.3 0-43.225-32.305-80.016-75.144-85.578z"/></g></g></svg>